<?xml version="1.0" standalone="no"?>
<!DOCTYPE svg PUBLIC "-//W3C//DTD SVG 20010904//EN"
 "http://www.w3.org/TR/2001/REC-SVG-20010904/DTD/svg10.dtd">
<svg version="1.0" xmlns="http://www.w3.org/2000/svg"
 width="300.000000pt" height="300.000000pt" viewBox="0 0 300.000000 300.000000"
 preserveAspectRatio="xMidYMid meet">
<metadata>
Created by potrace 1.10, written by Peter Selinger 2001-2011
</metadata>
<g transform="translate(0.000000,300.000000) scale(0.100000,-0.100000)"
fill="#000000" stroke="none">
<path d="M1470 2951 c-25 -11 -103 -41 -175 -66 -139 -50 -164 -59 -265 -98
-36 -14 -102 -38 -147 -53 -46 -15 -83 -30 -83 -33 1 -3 62 -27 138 -53 75
-26 182 -63 237 -84 362 -134 358 -133 406 -111 19 9 52 21 74 28 22 7 44 17
50 21 5 4 15 8 23 8 8 0 28 6 45 14 18 8 70 28 117 44 47 16 130 47 185 67 55
21 119 43 143 49 23 6 42 14 42 17 0 4 -24 14 -52 23 -59 19 -138 47 -308 111
-222 83 -335 123 -360 129 -14 3 -44 -2 -70 -13z m187 -69 c43 -17 130 -50
193 -73 180 -65 270 -101 270 -109 0 -10 -39 -27 -150 -66 -52 -18 -133 -47
-180 -64 -47 -18 -124 -45 -172 -62 l-88 -30 -72 25 c-40 13 -116 40 -168 60
-52 19 -129 47 -170 61 -129 46 -180 68 -180 76 0 4 17 15 38 23 41 16 292
109 362 134 47 16 87 32 130 52 37 16 101 7 187 -27z"/>
<path d="M695 2395 c-60 -24 -120 -44 -132 -44 -13 -1 -23 -5 -23 -10 0 -5 10
-13 23 -16 12 -4 76 -26 142 -50 66 -24 179 -65 250 -91 72 -25 166 -60 210
-76 44 -16 91 -34 105 -38 25 -9 112 -41 208 -78 l54 -21 56 24 c31 13 91 35
132 50 41 15 84 31 95 35 11 5 40 16 65 24 25 8 77 27 115 41 39 14 99 37 135
50 36 12 110 40 165 60 55 20 128 46 163 57 61 20 81 38 42 38 -19 0 -135 40
-222 77 -40 17 -41 17 -143 -22 -81 -31 -211 -79 -340 -124 -49 -18 -99 -36
-110 -40 -11 -5 -33 -14 -50 -21 -103 -42 -109 -42 -177 -14 -34 14 -71 30
-80 35 -10 5 -25 9 -33 9 -8 0 -23 4 -33 10 -9 5 -80 32 -157 60 -77 28 -180
67 -230 86 -49 19 -97 34 -105 33 -8 -1 -64 -20 -125 -44z m235 -36 c157 -57
264 -97 405 -150 165 -63 212 -67 315 -27 67 26 476 176 543 199 29 10 47 11
80 2 67 -18 120 -44 111 -53 -5 -4 -124 -49 -264 -100 -350 -127 -424 -154
-505 -185 -82 -31 -95 -30 -239 25 -55 22 -146 55 -201 75 -55 20 -122 44
-150 55 -27 10 -102 37 -165 60 -142 51 -180 67 -180 78 0 11 108 51 140 51
14 1 63 -13 110 -30z"/>
<path d="M535 1989 c-72 -27 -168 -62 -215 -78 -47 -16 -78 -31 -70 -34 8 -2
50 -15 93 -28 l78 -24 -3 -128 c-2 -97 0 -127 10 -127 7 0 20 -4 30 -9 9 -5
31 -15 47 -22 17 -7 34 -15 38 -17 5 -2 8 54 6 124 -1 76 1 128 7 127 5 -1 55
-20 112 -42 57 -22 129 -49 160 -60 31 -11 89 -31 127 -46 39 -14 90 -33 115
-41 25 -8 54 -19 65 -24 11 -4 54 -20 95 -35 41 -15 89 -33 105 -40 17 -7 41
-16 55 -19 30 -9 98 -35 123 -48 12 -6 23 -6 30 0 7 5 46 21 87 35 41 14 100
35 130 47 30 12 75 28 100 36 25 8 54 19 65 24 11 5 40 16 65 24 41 13 71 24
125 47 11 5 97 36 190 69 94 34 224 82 290 106 66 25 138 50 160 56 58 16 63
25 17 38 -23 6 -119 39 -213 75 l-172 64 -66 -26 c-103 -39 -131 -50 -196 -73
-33 -12 -76 -28 -95 -35 -69 -26 -147 -54 -275 -100 -71 -26 -151 -55 -177
-66 -45 -18 -50 -18 -85 -3 -21 8 -58 22 -83 30 -25 9 -85 31 -135 49 -49 19
-160 59 -245 90 -85 31 -171 63 -190 70 -19 7 -65 25 -103 39 -37 14 -68 26
-70 25 -1 -1 -60 -23 -132 -50z m281 -50 c77 -27 159 -57 184 -65 25 -9 59
-21 75 -28 17 -7 95 -37 175 -65 80 -29 163 -60 185 -69 65 -28 137 -21 250
22 55 21 141 53 190 71 50 18 135 49 190 69 55 21 151 55 213 78 l113 40 62
-22 c124 -44 217 -83 217 -90 0 -5 -17 -14 -37 -21 -21 -6 -42 -15 -48 -19 -5
-4 -35 -15 -65 -25 -30 -10 -89 -30 -130 -45 -115 -43 -376 -139 -465 -170
-44 -16 -136 -50 -205 -75 -69 -26 -139 -51 -156 -57 -33 -11 -59 -4 -414 127
-69 26 -186 68 -260 95 -74 26 -172 62 -218 79 -46 17 -94 31 -107 31 -39 0
-55 -35 -55 -122 0 -77 -9 -99 -34 -79 -10 8 -15 45 -18 117 -4 106 -4 106
-37 136 -37 34 -36 37 34 63 143 53 201 74 211 74 7 1 74 -22 150 -50z"/>
<path d="M682 1298 c3 -145 7 -179 22 -208 32 -59 58 -89 114 -131 162 -123
409 -189 705 -189 404 0 733 127 829 319 19 40 22 63 25 213 1 92 0 168 -4
168 -7 0 -142 -48 -168 -60 -11 -5 -54 -20 -95 -35 -41 -14 -84 -30 -95 -35
-11 -5 -40 -16 -65 -24 -25 -8 -76 -27 -115 -41 -38 -15 -81 -31 -95 -35 -24
-8 -128 -47 -182 -69 -23 -8 -41 -5 -110 21 -46 16 -126 46 -178 65 -52 19
-131 48 -175 65 -44 16 -98 36 -120 43 -41 14 -126 46 -225 84 -30 11 -59 21
-63 21 -5 0 -7 -78 -5 -172z m194 62 c60 -22 132 -49 159 -59 28 -10 75 -28
105 -39 30 -11 117 -44 194 -72 188 -71 192 -72 235 -56 20 7 88 32 151 55 63
24 144 53 180 66 36 13 135 49 220 81 85 31 169 57 185 58 l30 1 -1 -115 c0
-151 -7 -179 -54 -232 -220 -250 -864 -323 -1284 -146 -88 38 -184 104 -227
160 l-34 42 -3 148 c-4 140 -3 148 15 148 11 0 69 -18 129 -40z"/>
<path d="M360 438 c0 -2 -2 -72 -3 -156 l-2 -152 38 0 38 0 -2 53 c-3 51 -3
52 26 55 71 6 99 15 121 39 40 44 26 121 -27 149 -23 11 -188 22 -189 12z
m167 -84 c11 -30 -11 -49 -57 -49 -41 0 -43 1 -45 33 l-3 32 49 0 c37 0 51 -4
56 -16z"/>
<path d="M1470 286 l0 -155 111 -3 c61 -2 112 -1 114 2 2 3 1 17 -2 33 -5 27
-7 27 -79 27 l-74 0 0 125 0 125 -35 0 -35 0 0 -154z"/>
<path d="M701 346 c-43 -15 -70 -50 -78 -99 -8 -52 30 -109 84 -125 33 -10 47
-9 81 5 23 9 42 20 42 24 0 19 -44 37 -76 32 -35 -6 -64 9 -64 33 0 10 20 12
83 11 l82 -2 -3 30 c-5 43 -28 75 -67 91 -40 16 -39 16 -84 0z m77 -58 c22
-22 13 -28 -38 -28 -27 0 -50 4 -50 8 0 16 25 32 50 32 14 0 31 -5 38 -12z"/>
<path d="M1005 350 c-11 -5 -39 -6 -62 -3 l-43 5 0 -161 0 -162 33 3 32 3 -3
53 c-2 28 -1 52 3 52 3 0 20 -7 36 -16 28 -14 33 -14 67 3 36 18 71 68 72 106
1 70 -80 141 -135 117z m43 -66 c15 -10 22 -25 22 -48 0 -41 -15 -56 -57 -56
-52 0 -72 61 -33 100 24 24 38 25 68 4z"/>
<path d="M1282 344 c-19 -8 -34 -9 -37 -3 -4 5 -20 9 -36 9 l-30 0 3 -157 3
-158 34 -3 34 -3 -7 55 c-7 60 -3 64 39 42 37 -19 82 -2 113 44 62 92 -19 215
-116 174z m55 -66 c27 -25 29 -54 6 -80 -20 -22 -66 -24 -83 -3 -18 22 -15 62
5 85 23 26 43 25 72 -2z"/>
<path d="M1804 349 c-53 -15 -79 -53 -79 -114 0 -60 18 -88 74 -111 27 -11 41
-12 72 -2 55 16 65 32 35 52 -19 12 -31 13 -50 6 -19 -7 -30 -5 -50 11 -14 11
-26 24 -26 29 0 5 39 6 86 4 l86 -5 -7 37 c-9 49 -31 81 -60 88 -13 3 -29 8
-37 10 -7 2 -27 0 -44 -5z m74 -71 c3 -15 -4 -18 -48 -18 -48 0 -50 1 -40 21
15 26 83 24 88 -3z"/>
<path d="M2063 353 c-30 -6 -71 -56 -79 -98 -9 -49 21 -105 68 -128 33 -16 40
-17 66 -3 20 11 39 12 65 6 l37 -8 0 114 0 114 -29 0 c-16 0 -31 -5 -33 -11
-2 -6 -14 -5 -33 5 -17 9 -32 15 -35 15 -3 -1 -15 -4 -27 -6z m84 -81 c29 -39
4 -92 -44 -92 -37 0 -53 16 -53 54 0 60 61 84 97 38z"/>
<path d="M2386 352 c-4 -4 -30 -7 -58 -7 l-49 0 -2 -107 -2 -106 30 -5 c17 -3
34 -2 38 0 4 3 5 35 1 72 -7 76 5 97 57 93 24 -2 31 3 39 24 6 15 9 28 8 29
-10 8 -56 13 -62 7z"/>
<path d="M2595 350 c-11 -4 -39 -6 -62 -3 l-43 6 0 -111 0 -110 30 -4 c17 -3
32 -2 35 0 3 3 5 38 5 79 0 69 1 74 26 85 39 18 54 -9 54 -98 l0 -72 33 3 c29
2 32 6 35 36 2 19 1 62 -3 97 -5 49 -11 66 -28 76 -32 20 -59 26 -82 16z"/>
</g>
</svg>
